<svg id="Layer_1" data-name="Layer 1" xmlns="http://www.w3.org/2000/svg" viewBox="0 0 597.28 597.48"><defs><style>.cls-1{fill:#273576;}.cls-1,.cls-2,.cls-3,.cls-4{stroke:#231f20;stroke-linecap:round;stroke-width:2px;}.cls-2{fill:#272e70;stroke-miterlimit:10;}.cls-3{fill:#0d142d;}.cls-4{fill:#171a4b;stroke-linejoin:bevel;}</style></defs><title>ChanoHat</title><path class="cls-1" d="M393.85,74.52S406.61,57,427.43,69.22,441.3,95.33,441.3,95.33Z" transform="translate(-52.07 -63.89)"/><path class="cls-2" d="M399.91,74.45S695.2,174.26,634.4,341.59c0,0-50.26,146.88-35.78,164.49s-462.06-48.87-462.06-84.66c0,0-14.56-288.26,263.36-347" transform="translate(-52.07 -63.89)"/><path class="cls-3" d="M53.11,354.61S76.3,25.23,399.91,74.45c0,0-265.63,55.39-263.36,342.16Z" transform="translate(-52.07 -63.89)"/><path class="cls-4" d="M136.25,415.4S101.51,647,382.32,632.52c0,0,188.17,2.89,205.54,17.37s121.59,43.42,8.68-153.43c0,0-332.92-5.79-460.29-81.06" transform="translate(-52.07 -63.89)"/></svg>